:SAMPLES-PER-SECOND 30
:FULLY-SPECIFIED
:DEGREES
154
root  4.910088712 39.32955584 2.267377771 -11.81500244 -65.98300171 23.35498047
lowerback  14.48079967 6.831399918 1.114860058
upperback  5.663259983 8.946000099 -0.0861376971
thorax  -1.865270019 4.38711977 -2.094089985
lowerneck  2.942440033 -0.3755190074 -8.627309799
upperneck  0.9570500255 -0.8488090038 -4.692649841
head  -0.1729499996 -0.4566240013 -0.02136770077
lclavicle  0 -9.442270133e-015 7.951389973e-016
lhumerus  -34.80379868 -2.093590021 82.49430084
lradius  2.6425316e-031 -2.342193583e-031 138.447998
lwrist  -7.062250077e-031 1.765562519e-031 18.9435997
lhand  -1.496451383e-031 -27.76390076 20.11240005
lfingers  90 7.125020027 -90
lthumb  89.89689403 5.08795885 91.16245106
rclavicle  0 -9.442270133e-015 7.951389973e-016
rhumerus  -9.847229958 15.46310043 -78.74629974
rradius  -9.893969372e-033 3.529738655e-031 91.60559845
rwrist  0 1.765562519e-031 -22.1718998
rhand  -7.920061211e-032 -33.2840004 9.303460121
rfingers  -90 -7.125020027 -90
rthumb  -92.93752616 -24.25625642 -97.11982154
rfemur  -11.98589993 11.70800018 -0.9306430221
rtibia  -0 0 47.15579987
rfoot  -0 -25.49010086 -16.32060051
rtoes  5.373923086 19.29304026 -105.8922705
lfemur  -29.38389969 2.216510057 -9.904370308
ltibia  -0 0 43.24380112
lfoot  -0 -4.551700115 8.003640175
ltoes  -4.250644065 -19.5611806 -102.515957
155
root  4.99308879 39.62933398 2.176953301 -12.63800049 -67.38300323 24.01898193
lowerback  14.77729988 6.707729816 0.4988729954
upperback  5.695539951 8.695249557 0.1172870025
thorax  -2.12274003 4.243700027 -1.554520011
lowerneck  3.251749992 0.243080005 -8.411589622
upperneck  1.243530035 -0.04179669917 -5.168169975
head  -0.1491460055 -0.06254220009 -0.2104769945
lclavicle  0 -9.442270133e-015 7.951389973e-016
lhumerus  -35.31940079 -1.497059941 82.47419739
lradius  2.683126483e-031 -2.295577555e-031 139.451004
lwrist  -1.412450015e-030 1.765562519e-031 18.26569939
lhand  -1.496451383e-031 -27.76390076 20.11240005
lfingers  90 7.125020027 -90
lthumb  89.89689403 5.08795885 91.16245106
rclavicle  0 -9.442270133e-015 7.951389973e-016
rhumerus  -10.80249977 16.62719917 -78.45529938
rradius  -2.23012967e-032 3.524075659e-031 93.6210022
rwrist  1.412450015e-030 1.765562519e-031 -20.31999969
rhand  -7.920061211e-032 -33.2840004 9.303460121
rfingers  -90 -7.125020027 -90
rthumb  -92.93752616 -24.25625642 -97.11982154
rfemur  -13.14470005 11.61810017 -1.469720006
rtibia  -0 0 47.31520081
rfoot  -0 -23.19510078 -13.87769985
rtoes  5.373923086 19.29304026 -105.8922705
lfemur  -28.4368 2.099270105 -9.523300171
ltibia  -0 0 42.11819839
lfoot  -0 -2.441169977 8.708820343
ltoes  -4.250644065 -19.5611806 -102.515957
156
root  5.066422215 39.90911048 2.084533248 -13.44897461 -68.70899963 24.54797363
lowerback  14.87069988 6.344359875 0.7487229705
upperback  5.961090088 8.217430115 -0.2761040032
thorax  -1.809540033 4.012310028 -2.007390022
lowerneck  3.433259964 0.8428840041 -7.724359989
upperneck  1.165680051 0.759878993 -5.221330166
head  -0.2110159993 0.3487839997 -0.3455120027
lclavicle  0 -9.442270133e-015 7.951389973e-016
lhumerus  -35.17689896 -1.036749959 81.123703
lradius  2.726622598e-031 -2.243740904e-031 140.548996
lwrist  -7.062250077e-031 -0 18.11310005
lhand  -1.496451383e-031 -27.76390076 20.11240005
lfingers  90 7.125020027 -90
lthumb  89.89689403 5.08795885 91.16245106
rclavicle  0 -9.442270133e-015 7.951389973e-016
rhumerus  -11.23760033 17.31130028 -78.83999634
rradius  -3.622928734e-032 3.512490272e-031 95.88890076
rwrist  7.062250077e-031 -0 -18.60239983
rhand  -7.920061211e-032 -33.2840004 9.303460121
rfingers  -90 -7.125020027 -90
rthumb  -92.93752616 -24.25625642 -97.11982154
rfemur  -14.10509968 11.71090031 -1.770799994
rtibia  -0 0 47.47180176
rfoot  -0 -20.83889961 -12.13169956
rtoes  5.373923086 19.29304026 -105.8922705
lfemur  -27.57550049 2.093310118 -9.14910984
ltibia  -0 0 41.29579926
lfoot  -0 -1.432549953 10.39579964
ltoes  -4.250644065 -19.5611806 -102.515957
157
root  5.142733431 40.15822223 1.971759946 -14.05297852 -69.88899994 24.80499268
lowerback  15.06289959 6.032040119 0.5720739961
upperback  6.179490089 7.759640217 -0.3514049947
thorax  -1.71013999 3.77767992 -1.924929976
lowerneck  3.497600079 1.418529987 -7.164800167
upperneck  1.257750034 1.547420025 -5.409090042
head  -0.1958159953 0.7420729995 -0.5016930103
lclavicle  0 -9.442270133e-015 7.951389973e-016
lhumerus  -35.05360031 -0.5501639843 79.88420105
lradius  2.767893923e-031 -2.192625656e-031 141.6150055
lwrist  -7.062250077e-031 -8.827812596e-032 18.13409996
lhand  -1.496451383e-031 -27.76390076 20.11240005
lfingers  90 7.125020027 -90
lthumb  89.89689403 5.08795885 91.16245106
rclavicle  0 -9.442270133e-015 7.951389973e-016
rhumerus  -11.45269966 17.94939995 -78.71450043
rradius  -5.022926044e-032 3.495217615e-031 98.17790222
rwrist  7.062250077e-031 1.765562519e-031 -17.07290077
rhand  -7.920061211e-032 -33.2840004 9.303460121
rfingers  -90 -7.125020027 -90
rthumb  -92.93752616 -24.25625642 -97.11982154
rfemur  -14.90779972 11.96949959 -1.82901001
rtibia  -0 0 47.66740036
rfoot  -0 -18.82130051 -10.95429993
rtoes  5.373923086 19.29304026 -105.8922705
lfemur  -26.90780067 2.052619934 -8.698619843
ltibia  -0 0 40.85969925
lfoot  -0 -0.3476470113 12.07929993
ltoes  -4.250644065 -19.5611806 -102.515957
